<svg width="37" height="36" viewBox="0 0 37 36" fill="none" xmlns="http://www.w3.org/2000/svg">
<path id="shape" d="M2.40513 30.3996C2.72856 32.3049 4.42631 33.7579 6.47212 33.7579H31.2072C33.484 33.7579 35.3297 31.9583 35.3297 29.7384V22.0816M2.40513 30.3996C2.36861 30.1845 2.34961 29.9636 2.34961 29.7384V5.62174C2.34961 3.40186 4.19532 1.60229 6.47212 1.60229H31.2072C33.484 1.60229 35.3297 3.40186 35.3297 5.62174V22.0816M2.40513 30.3996L10.2805 22.7211C11.6823 21.5253 13.7322 21.3944 15.282 22.4017L16.3314 23.0838C17.8252 24.0548 19.7916 23.9716 21.1935 22.8781L26.652 18.6205C28.0433 17.5353 29.9812 17.4501 31.4603 18.3803C31.6242 18.4834 31.7701 18.6111 31.908 18.7456L35.3297 22.0816M16.7784 11.6509C16.7784 13.8708 14.9327 15.6704 12.6559 15.6704C10.3791 15.6704 8.53337 13.8708 8.53337 11.6509C8.53337 9.43103 10.3791 7.63146 12.6559 7.63146C14.9327 7.63146 16.7784 9.43103 16.7784 11.6509Z" stroke="#9A9A9A" stroke-width="3" stroke-linecap="round" stroke-linejoin="round"/>
</svg>
