<svg width="22" height="22" viewBox="0 0 22 22" fill="none" xmlns="http://www.w3.org/2000/svg">
<path d="M10.9316 0.287354C11.2891 0.287354 11.6318 0.429338 11.8846 0.682073C12.1373 0.934807 12.2793 1.27759 12.2793 1.63501V9.72095H20.3652C20.7227 9.72095 21.0654 9.86293 21.3182 10.1157C21.5709 10.3684 21.7129 10.7112 21.7129 11.0686C21.7129 11.426 21.5709 11.7688 21.3182 12.0215C21.0654 12.2743 20.7227 12.4163 20.3652 12.4163H12.2793V20.5022C12.2793 20.8596 12.1373 21.2024 11.8846 21.4551C11.6318 21.7079 11.2891 21.8499 10.9316 21.8499C10.5742 21.8499 10.2314 21.7079 9.9787 21.4551C9.72597 21.2024 9.58398 20.8596 9.58398 20.5022V12.4163H1.49805C1.14063 12.4163 0.797845 12.2743 0.54511 12.0215C0.292375 11.7688 0.150391 11.426 0.150391 11.0686C0.150391 10.7112 0.292375 10.3684 0.54511 10.1157C0.797845 9.86293 1.14063 9.72095 1.49805 9.72095H9.58398V1.63501C9.58398 1.27759 9.72597 0.934807 9.9787 0.682073C10.2314 0.429338 10.5742 0.287354 10.9316 0.287354V0.287354Z" fill="white"/>
</svg>
