<svg width="24" height="24" viewBox="0 0 24 24" fill="none" xmlns="http://www.w3.org/2000/svg">
<g id="fe:search" clip-path="url(#clip0_897_257)">
<path id="Vector" fill-rule="evenodd" clip-rule="evenodd" d="M18.3257 14.899L23.7057 20.279C23.8948 20.4682 24.001 20.7248 24.0009 20.9923C24.0008 21.2599 23.8945 21.5164 23.7052 21.7055C23.516 21.8946 23.2594 22.0008 22.9919 22.0007C22.7244 22.0006 22.4678 21.8942 22.2787 21.705L16.8987 16.325C15.2905 17.5707 13.268 18.1569 11.2429 17.9643C9.21772 17.7718 7.34198 16.815 5.99723 15.2886C4.65248 13.7622 3.93973 11.7808 4.004 9.74753C4.06826 7.71427 4.9047 5.78185 6.34315 4.34339C7.7816 2.90494 9.71402 2.0685 11.7473 2.00424C13.7806 1.93998 15.7619 2.65272 17.2884 3.99747C18.8148 5.34222 19.7716 7.21796 19.9641 9.24312C20.1566 11.2683 19.5704 13.2907 18.3247 14.899H18.3257ZM12.0007 16C13.592 16 15.1182 15.3678 16.2434 14.2426C17.3686 13.1174 18.0007 11.5913 18.0007 9.99999C18.0007 8.40869 17.3686 6.88257 16.2434 5.75735C15.1182 4.63213 13.592 3.99999 12.0007 3.99999C10.4094 3.99999 8.88332 4.63213 7.7581 5.75735C6.63289 6.88257 6.00074 8.40869 6.00074 9.99999C6.00074 11.5913 6.63289 13.1174 7.7581 14.2426C8.88332 15.3678 10.4094 16 12.0007 16Z" fill="#9A9A9A"/>
</g>
<defs>
<clipPath id="clip0_897_257">
<rect width="24" height="24" fill="white"/>
</clipPath>
</defs>
</svg>
