<?xml version="1.0" encoding="utf-8"?>
<!-- Generator: Adobe Illustrator 26.2.1, SVG Export Plug-In . SVG Version: 6.00 Build 0)  -->
<svg version="1.1" id="레이어_1" xmlns="http://www.w3.org/2000/svg" xmlns:xlink="http://www.w3.org/1999/xlink" x="0px"
	 y="0px" viewBox="0 0 37 36" style="enable-background:new 0 0 37 36;" xml:space="preserve">
<style type="text/css">
	.st0{fill:none;stroke:#9A9A9A;stroke-width:3;stroke-linecap:round;stroke-linejoin:round;}
</style>
<path class="st0" d="M2.1,30.7c0.3,1.9,2,3.4,4.1,3.4h24.7c2.3,0,4.1-1.8,4.1-4v-7.7 M2.1,30.7C2,30.5,2,30.3,2,30.1V5.9
	c0-2.2,1.8-4,4.1-4h24.7c2.3,0,4.1,1.8,4.1,4v16.5 M2.1,30.7L9.9,23c1.4-1.2,3.5-1.3,5-0.3l1,0.7c1.5,1,3.5,0.9,4.9-0.2l5.5-4.3
	c1.4-1.1,3.3-1.2,4.8-0.2c0.2,0.1,0.3,0.2,0.4,0.4l3.4,3.3 M16.4,12c0,2.2-1.8,4-4.1,4s-4.1-1.8-4.1-4c0-2.2,1.8-4,4.1-4
	S16.4,9.8,16.4,12z"/>
</svg>
